<?xml version="1.0" standalone="no"?>
<!DOCTYPE svg PUBLIC "-//W3C//DTD SVG 20010904//EN"
 "http://www.w3.org/TR/2001/REC-SVG-20010904/DTD/svg10.dtd">
<svg version="1.0" xmlns="http://www.w3.org/2000/svg"
 width="225.000000pt" height="225.000000pt" viewBox="0 0 225.000000 225.000000"
 preserveAspectRatio="xMidYMid meet">
<metadata>
Created by potrace 1.11, written by Peter Selinger 2001-2013
</metadata>
<g transform="translate(0.000000,225.000000) scale(0.100000,-0.100000)"
fill="#000000" stroke="none">
<path d="M1065 2227 c-35 -29 -44 -96 -21 -151 9 -21 16 -53 16 -70 0 -29 -4
-33 -42 -44 -65 -20 -120 -62 -137 -105 -12 -33 -12 -46 2 -110 8 -39 20 -97
27 -128 13 -65 33 -99 61 -99 16 0 19 -7 19 -41 0 -23 -5 -59 -12 -80 -14 -47
3 -229 28 -303 14 -40 15 -57 5 -103 -15 -75 -14 -133 3 -185 24 -74 27 -97
20 -162 l-7 -64 -41 -6 c-74 -12 -117 -27 -137 -47 -20 -20 -20 -21 -3 -40 34
-38 117 -54 279 -54 162 0 245 16 279 54 17 19 17 20 -3 40 -20 20 -63 35
-137 47 l-41 6 -7 64 c-7 65 -4 88 20 162 17 52 18 110 3 185 -10 46 -9 63 5
103 25 74 42 256 28 303 -7 21 -12 57 -12 80 0 34 3 41 19 41 28 0 48 34 61
99 7 31 19 88 27 127 12 58 13 78 3 108 -13 41 -73 87 -139 108 -38 12 -41 15
-41 48 0 20 6 42 12 48 8 8 13 40 13 78 0 60 -3 68 -28 90 -37 31 -87 32 -122
1z"/>
<path d="M798 452 c-7 -8 -13 -39 -12 -67 0 -50 -1 -53 -32 -64 -18 -6 -44
-21 -58 -32 -24 -19 -26 -26 -26 -109 l0 -89 53 -24 c150 -71 498 -87 706 -32
30 8 75 27 100 42 l46 29 3 78 c3 90 -4 104 -72 132 -42 18 -42 18 -41 70 0
36 -5 58 -16 69 -14 14 -20 14 -61 -5 -69 -30 -140 -41 -273 -41 -132 0 -210
12 -267 40 -34 16 -39 17 -50 3z"/>
</g>
</svg>
